<svg width="36" height="36" viewBox="0 0 36 36" fill="none" xmlns="http://www.w3.org/2000/svg"><path d="M20.39 27.66L30 18L20.39 8.34C20.3032 8.22603 20.1929 8.13203 20.0667 8.06438C19.9404 7.99672 19.8011 7.95699 19.6581 7.94787C19.5151 7.93875 19.3719 7.96045 19.238 8.01151C19.1042 8.06256 18.9828 8.14178 18.8823 8.2438C18.7817 8.34582 18.7042 8.46826 18.6551 8.60282C18.6059 8.73739 18.5863 8.88094 18.5975 9.02376C18.6086 9.16658 18.6503 9.30534 18.7198 9.43064C18.7892 9.55593 18.8848 9.66485 19 9.75L26.19 17L7.06 17C6.79478 17 6.54043 17.1054 6.35289 17.2929C6.16536 17.4804 6.06 17.7348 6.06 18C6.06 18.2652 6.16536 18.5196 6.35289 18.7071C6.54043 18.8946 6.79478 19 7.06 19L26.19 19L19 26.25C18.813 26.4383 18.7085 26.6932 18.7094 26.9585C18.7104 27.2239 18.8167 27.478 19.005 27.665C19.1933 27.852 19.4482 27.9565 19.7135 27.9556C19.9789 27.9546 20.233 27.8483 20.42 27.66L20.39 27.66Z" fill="black"/></svg>
