<svg width="36" height="36" viewBox="0 0 36 36" fill="none" xmlns="http://www.w3.org/2000/svg"><path d="M23.7028 18.0493L14.0928 27.7093L14.1228 27.7093C13.9358 27.8976 13.6817 28.0039 13.4163 28.0049C13.151 28.0058 12.8961 27.9013 12.7078 27.7143C12.5195 27.5273 12.4132 27.2732 12.4122 27.0078C12.4113 26.7425 12.5158 26.4876 12.7028 26.2993L19.8928 19.0493L20.8928 18.0493L19.8928 17.0493L12.7028 9.7993C12.5876 9.71414 12.492 9.60523 12.4226 9.47993C12.3531 9.35464 12.3114 9.21588 12.3002 9.07306C12.2891 8.93024 12.3087 8.78669 12.3579 8.65212C12.407 8.51756 12.4845 8.39512 12.5851 8.2931C12.6856 8.19108 12.807 8.11186 12.9408 8.0608C13.0747 8.00975 13.2179 7.98805 13.3609 7.99717C13.5038 8.00629 13.6432 8.04602 13.7695 8.11367C13.8957 8.18133 14.006 8.27532 14.0928 8.3893L23.7028 18.0493Z" fill="black"/></svg>
