<svg width="36" height="36" viewBox="0 0 36 36" fill="none" xmlns="http://www.w3.org/2000/svg"><path d="M16.59 29C16.5892 28.8684 16.6145 28.7379 16.6642 28.6161C16.714 28.4943 16.7873 28.3834 16.88 28.29L27.17 18L16.88 7.71C16.7162 7.5187 16.6306 7.27262 16.6403 7.02095C16.65 6.76927 16.7543 6.53053 16.9324 6.35244C17.1105 6.17434 17.3493 6.07001 17.6009 6.06029C17.8526 6.05057 18.0987 6.13617 18.29 6.3L30 18L18.29 29.71C18.1496 29.8476 17.9718 29.9408 17.7787 29.9779C17.5857 30.015 17.386 29.9944 17.2046 29.9186C17.0232 29.8429 16.8682 29.7153 16.7589 29.5519C16.6495 29.3886 16.5908 29.1966 16.59 29Z" fill="black"/><path d="M5.59 29C5.58924 28.8684 5.61446 28.7379 5.66423 28.6161C5.71399 28.4943 5.78732 28.3834 5.88 28.29L16.17 18L5.88 7.71C5.71617 7.5187 5.63057 7.27262 5.64029 7.02095C5.65001 6.76927 5.75434 6.53053 5.93244 6.35244C6.11053 6.17434 6.34927 6.07001 6.60095 6.06029C6.85262 6.05057 7.0987 6.13617 7.29 6.3L19 18L7.29 29.71C7.14962 29.8476 6.97179 29.9408 6.77874 29.9779C6.5857 30.015 6.386 29.9944 6.2046 29.9186C6.02321 29.8429 5.86817 29.7153 5.75886 29.5519C5.64954 29.3886 5.59081 29.1966 5.59 29Z" fill="black"/></svg>
